<svg width="185" height="315" viewBox="0 0 185 315" fill="none" xmlns="http://www.w3.org/2000/svg">
<path d="M177.772 46.4648L99.6753 1.46926C95.7295 -0.803821 92.4985 1.0603 92.4985 5.60645V103.834L7.17685 152.995C3.23101 155.268 0 160.851 0 165.407V255.388C0 259.934 3.23101 265.527 7.17685 267.8L85.274 312.795C89.2198 315.068 95.6819 315.068 99.6372 312.795L177.734 267.8C181.68 265.527 184.911 259.944 184.911 255.388L184.959 58.8763C184.959 54.3302 181.728 48.7473 177.772 46.4648ZM171.635 157.712L142.832 174.299C138.886 176.572 132.424 180.3 128.469 182.574L99.6753 199.16C95.7295 201.433 92.4985 199.569 92.4985 195.023V153.566V103.834L128.478 124.558C132.424 126.831 138.886 130.559 142.841 132.832L171.644 149.419C175.58 151.711 175.58 155.43 171.635 157.712Z" fill="#F85606"/>
</svg>
